<mxfile host="app.diagrams.net" agent="Mozilla/5.0 (Windows NT 10.0; Win64; x64) AppleWebKit/537.36 (KHTML, like Gecko) Chrome/138.0.0.0 Safari/537.36 Edg/138.0.0.0" version="28.0.7">
  <diagram name="Page-1" id="ZPpwO8pED5HudYQ8jas2">
    <mxGraphModel dx="1235" dy="797" grid="0" gridSize="10" guides="1" tooltips="1" connect="1" arrows="1" fold="1" page="1" pageScale="1" pageWidth="850" pageHeight="1100" math="0" shadow="0">
      <root>
        <mxCell id="0" />
        <mxCell id="1" parent="0" />
        <mxCell id="3D1PrdTJ9IL0VZI-XMwe-2" value="" style="verticalLabelPosition=bottom;html=1;verticalAlign=top;strokeWidth=2;shape=mxgraph.lean_mapping.timeline2;dx1=0;dy1=1;dx2=150.5;dy2=0.495;dx3=250.955;dy3=0.995;dx4=350.955;dy4=0.052;dx5=450.955;dy5=0.78;dy6=0;" vertex="1" parent="1">
          <mxGeometry x="137" y="515" width="550" height="40" as="geometry" />
        </mxCell>
        <mxCell id="3D1PrdTJ9IL0VZI-XMwe-6" value="&lt;b&gt;08-Aug&lt;/b&gt;" style="shape=umlLifeline;perimeter=lifelinePerimeter;whiteSpace=wrap;html=1;container=1;dropTarget=0;collapsible=0;recursiveResize=0;outlineConnect=0;portConstraint=eastwest;newEdgeStyle={&quot;curved&quot;:0,&quot;rounded&quot;:0};" vertex="1" parent="1">
          <mxGeometry x="137" y="88" width="100" height="623" as="geometry" />
        </mxCell>
        <mxCell id="3D1PrdTJ9IL0VZI-XMwe-8" value="&lt;b&gt;18-Aug&lt;/b&gt;" style="shape=umlLifeline;perimeter=lifelinePerimeter;whiteSpace=wrap;html=1;container=1;dropTarget=0;collapsible=0;recursiveResize=0;outlineConnect=0;portConstraint=eastwest;newEdgeStyle={&quot;curved&quot;:0,&quot;rounded&quot;:0};" vertex="1" parent="1">
          <mxGeometry x="237" y="88" width="100" height="623" as="geometry" />
        </mxCell>
        <mxCell id="3D1PrdTJ9IL0VZI-XMwe-9" value="&lt;b&gt;25-Aug&lt;/b&gt;" style="shape=umlLifeline;perimeter=lifelinePerimeter;whiteSpace=wrap;html=1;container=1;dropTarget=0;collapsible=0;recursiveResize=0;outlineConnect=0;portConstraint=eastwest;newEdgeStyle={&quot;curved&quot;:0,&quot;rounded&quot;:0};" vertex="1" parent="1">
          <mxGeometry x="337" y="88" width="100" height="623" as="geometry" />
        </mxCell>
        <mxCell id="3D1PrdTJ9IL0VZI-XMwe-10" value="&lt;b&gt;05-Sep&lt;/b&gt;" style="shape=umlLifeline;perimeter=lifelinePerimeter;whiteSpace=wrap;html=1;container=1;dropTarget=0;collapsible=0;recursiveResize=0;outlineConnect=0;portConstraint=eastwest;newEdgeStyle={&quot;curved&quot;:0,&quot;rounded&quot;:0};" vertex="1" parent="1">
          <mxGeometry x="437" y="88" width="100" height="623" as="geometry" />
        </mxCell>
        <mxCell id="3D1PrdTJ9IL0VZI-XMwe-11" value="&lt;b&gt;15-Sep&lt;/b&gt;" style="shape=umlLifeline;perimeter=lifelinePerimeter;whiteSpace=wrap;html=1;container=1;dropTarget=0;collapsible=0;recursiveResize=0;outlineConnect=0;portConstraint=eastwest;newEdgeStyle={&quot;curved&quot;:0,&quot;rounded&quot;:0};" vertex="1" parent="1">
          <mxGeometry x="537" y="88" width="100" height="623" as="geometry" />
        </mxCell>
        <mxCell id="3D1PrdTJ9IL0VZI-XMwe-12" value="&lt;b&gt;29-Sep&lt;/b&gt;" style="shape=umlLifeline;perimeter=lifelinePerimeter;whiteSpace=wrap;html=1;container=1;dropTarget=0;collapsible=0;recursiveResize=0;outlineConnect=0;portConstraint=eastwest;newEdgeStyle={&quot;curved&quot;:0,&quot;rounded&quot;:0};" vertex="1" parent="1">
          <mxGeometry x="637" y="88" width="100" height="623" as="geometry" />
        </mxCell>
        <mxCell id="3D1PrdTJ9IL0VZI-XMwe-13" value="&lt;b&gt;07-Oct&lt;/b&gt;" style="shape=umlLifeline;perimeter=lifelinePerimeter;whiteSpace=wrap;html=1;container=1;dropTarget=0;collapsible=0;recursiveResize=0;outlineConnect=0;portConstraint=eastwest;newEdgeStyle={&quot;curved&quot;:0,&quot;rounded&quot;:0};" vertex="1" parent="1">
          <mxGeometry x="737" y="88" width="100" height="623" as="geometry" />
        </mxCell>
        <mxCell id="3D1PrdTJ9IL0VZI-XMwe-14" value="Tech Preview&lt;div&gt;(11.2.0)&lt;/div&gt;" style="text;align=center;fontStyle=1;verticalAlign=middle;spacingLeft=3;spacingRight=3;strokeColor=none;rotatable=0;points=[[0,0.5],[1,0.5]];portConstraint=eastwest;html=1;" vertex="1" parent="1">
          <mxGeometry x="28" y="200" width="80" height="26" as="geometry" />
        </mxCell>
        <mxCell id="3D1PrdTJ9IL0VZI-XMwe-15" value="11.2.1 Release" style="text;align=center;fontStyle=1;verticalAlign=middle;spacingLeft=3;spacingRight=3;strokeColor=none;rotatable=0;points=[[0,0.5],[1,0.5]];portConstraint=eastwest;html=1;" vertex="1" parent="1">
          <mxGeometry x="28" y="318" width="80" height="26" as="geometry" />
        </mxCell>
        <mxCell id="3D1PrdTJ9IL0VZI-XMwe-16" value="Mongo Release&lt;div&gt;(11.2.2)&lt;/div&gt;" style="text;align=center;fontStyle=1;verticalAlign=middle;spacingLeft=3;spacingRight=3;strokeColor=none;rotatable=0;points=[[0,0.5],[1,0.5]];portConstraint=eastwest;html=1;" vertex="1" parent="1">
          <mxGeometry x="28" y="416" width="80" height="26" as="geometry" />
        </mxCell>
        <mxCell id="3D1PrdTJ9IL0VZI-XMwe-17" value="&lt;div&gt;AI - Agentic GA&lt;/div&gt;&lt;div&gt;(11.2.3)&lt;/div&gt;" style="text;align=center;fontStyle=1;verticalAlign=middle;spacingLeft=3;spacingRight=3;strokeColor=none;rotatable=0;points=[[0,0.5],[1,0.5]];portConstraint=eastwest;html=1;" vertex="1" parent="1">
          <mxGeometry x="28" y="519" width="80" height="26" as="geometry" />
        </mxCell>
        <mxCell id="3D1PrdTJ9IL0VZI-XMwe-19" value="INT EOD" style="text;align=center;fontStyle=1;verticalAlign=middle;spacingLeft=3;spacingRight=3;strokeColor=none;rotatable=0;points=[[0,0.5],[1,0.5]];portConstraint=eastwest;html=1;fontColor=#FF8000;" vertex="1" parent="1">
          <mxGeometry x="186" y="522" width="80" height="26" as="geometry" />
        </mxCell>
        <mxCell id="3D1PrdTJ9IL0VZI-XMwe-20" value="INT EOC" style="text;align=center;fontStyle=1;verticalAlign=middle;spacingLeft=3;spacingRight=3;strokeColor=none;rotatable=0;points=[[0,0.5],[1,0.5]];portConstraint=eastwest;html=1;fontColor=#FF8000;" vertex="1" parent="1">
          <mxGeometry x="297" y="522" width="80" height="26" as="geometry" />
        </mxCell>
        <mxCell id="3D1PrdTJ9IL0VZI-XMwe-21" value="AI Stage&amp;nbsp;&lt;div&gt;signoff&lt;/div&gt;" style="text;align=center;fontStyle=1;verticalAlign=middle;spacingLeft=3;spacingRight=3;strokeColor=none;rotatable=0;points=[[0,0.5],[1,0.5]];portConstraint=eastwest;html=1;fontColor=#FF8000;" vertex="1" parent="1">
          <mxGeometry x="399" y="522" width="80" height="26" as="geometry" />
        </mxCell>
        <mxCell id="3D1PrdTJ9IL0VZI-XMwe-22" value="Pentest" style="text;align=center;fontStyle=1;verticalAlign=middle;spacingLeft=3;spacingRight=3;strokeColor=none;rotatable=0;points=[[0,0.5],[1,0.5]];portConstraint=eastwest;html=1;fontColor=#FF8000;" vertex="1" parent="1">
          <mxGeometry x="500" y="524" width="80" height="26" as="geometry" />
        </mxCell>
        <mxCell id="3D1PrdTJ9IL0VZI-XMwe-23" value="PreProd&lt;div&gt;Signoff&lt;/div&gt;" style="text;align=center;fontStyle=1;verticalAlign=middle;spacingLeft=3;spacingRight=3;strokeColor=none;rotatable=0;points=[[0,0.5],[1,0.5]];portConstraint=eastwest;html=1;fontColor=#FF8000;" vertex="1" parent="1">
          <mxGeometry x="593" y="522" width="80" height="26" as="geometry" />
        </mxCell>
        <mxCell id="3D1PrdTJ9IL0VZI-XMwe-24" value="" style="verticalLabelPosition=bottom;html=1;verticalAlign=top;strokeWidth=2;shape=mxgraph.lean_mapping.timeline2;dx1=0;dy1=0.139;dx2=0;dy2=0;dx3=100.5;dy3=1;dx4=100.5;dy4=0.461;dx5=100.5;dy5=1;dy6=0;" vertex="1" parent="1">
          <mxGeometry x="687" y="515" width="100" height="40" as="geometry" />
        </mxCell>
        <mxCell id="3D1PrdTJ9IL0VZI-XMwe-25" value="Prod&lt;div&gt;GA Release&lt;/div&gt;" style="text;align=center;fontStyle=1;verticalAlign=middle;spacingLeft=3;spacingRight=3;strokeColor=none;rotatable=0;points=[[0,0.5],[1,0.5]];portConstraint=eastwest;html=1;fontColor=#FF8000;" vertex="1" parent="1">
          <mxGeometry x="698" y="522" width="80" height="26" as="geometry" />
        </mxCell>
        <mxCell id="3D1PrdTJ9IL0VZI-XMwe-26" value="" style="verticalLabelPosition=bottom;html=1;verticalAlign=top;strokeWidth=2;shape=mxgraph.lean_mapping.timeline2;dx1=0;dy1=1;dx2=50.5;dy2=0.316;dx3=149.591;dy3=1;dx4=250.045;dy4=0;dx5=450.955;dy5=0.78;dy6=0;" vertex="1" parent="1">
          <mxGeometry x="137" y="409" width="550" height="40" as="geometry" />
        </mxCell>
        <mxCell id="3D1PrdTJ9IL0VZI-XMwe-27" value="EOC" style="text;align=center;fontStyle=1;verticalAlign=middle;spacingLeft=3;spacingRight=3;strokeColor=none;rotatable=0;points=[[0,0.5],[1,0.5]];portConstraint=eastwest;html=1;fontColor=#FF8000;" vertex="1" parent="1">
          <mxGeometry x="124" y="416" width="80" height="26" as="geometry" />
        </mxCell>
        <mxCell id="3D1PrdTJ9IL0VZI-XMwe-28" value="Stage&lt;div&gt;Signoff&lt;br&gt;&amp;amp; Merge with&amp;nbsp;&lt;/div&gt;&lt;div&gt;11.2.3&lt;/div&gt;" style="text;align=center;fontStyle=1;verticalAlign=middle;spacingLeft=3;spacingRight=3;strokeColor=none;rotatable=0;points=[[0,0.5],[1,0.5]];portConstraint=eastwest;html=1;fontColor=#FF8000;" vertex="1" parent="1">
          <mxGeometry x="199" y="431" width="80" height="26" as="geometry" />
        </mxCell>
        <mxCell id="3D1PrdTJ9IL0VZI-XMwe-31" value="PreProd&lt;div&gt;Signoff&lt;/div&gt;" style="text;align=center;fontStyle=1;verticalAlign=middle;spacingLeft=3;spacingRight=3;strokeColor=none;rotatable=0;points=[[0,0.5],[1,0.5]];portConstraint=eastwest;html=1;fontColor=#FF8000;" vertex="1" parent="1">
          <mxGeometry x="297" y="416" width="80" height="26" as="geometry" />
        </mxCell>
        <mxCell id="3D1PrdTJ9IL0VZI-XMwe-32" value="" style="verticalLabelPosition=bottom;html=1;verticalAlign=top;strokeWidth=2;shape=mxgraph.lean_mapping.timeline2;dx1=0;dy1=0.139;dx2=0;dy2=0;dx3=100.5;dy3=1;dx4=100.5;dy4=0.461;dx5=100.5;dy5=1;dy6=0;" vertex="1" parent="1">
          <mxGeometry x="687" y="409" width="100" height="40" as="geometry" />
        </mxCell>
      </root>
    </mxGraphModel>
  </diagram>
</mxfile>
